<?xml version="1.0" standalone="no"?>
<!DOCTYPE svg PUBLIC "-//W3C//DTD SVG 20010904//EN"
 "http://www.w3.org/TR/2001/REC-SVG-20010904/DTD/svg10.dtd">
<svg version="1.0" xmlns="http://www.w3.org/2000/svg"
 width="520.000000pt" height="520.000000pt" viewBox="0 0 520.000000 520.000000"
 preserveAspectRatio="xMidYMid meet">
<metadata>
Created by potrace 1.16, written by Peter Selinger 2001-2019
</metadata>
<g transform="translate(0.000000,520.000000) scale(0.100000,-0.100000)"
fill="#000000" stroke="none">
<path d="M1300 4464 c-234 -50 -436 -254 -485 -489 -22 -105 -22 -2485 0
-2590 50 -238 252 -440 490 -490 105 -22 2485 -22 2590 0 182 38 352 170 434
335 74 151 71 81 71 1450 0 1369 3 1299 -71 1450 -81 164 -255 298 -434 335
-102 21 -2496 21 -2595 -1z m1868 -1227 c-1 -51 1 -98 6 -105 4 -6 3 -12 -1
-12 -5 0 -14 12 -20 28 -10 25 -11 24 -8 -15 3 -28 0 -43 -8 -43 -7 0 -6 -4 3
-10 8 -5 22 -10 30 -10 13 0 13 1 0 10 -8 5 -10 10 -5 10 6 0 16 -4 24 -9 23
-15 -26 -25 -57 -12 -18 8 -106 10 -262 8 l-235 -2 242 -3 c133 -1 244 -5 246
-9 3 -5 -115 -6 -261 -5 -147 2 -258 7 -248 11 18 7 18 8 -5 14 -13 4 -91 7
-172 7 l-149 0 6 -37 c3 -21 8 -71 12 -110 l6 -73 379 3 c208 1 379 5 379 10
0 4 6 7 14 7 24 0 41 -32 42 -83 1 -33 -1 -45 -7 -36 -6 9 -7 5 -3 -13 4 -18
2 -28 -5 -28 -6 0 -11 -8 -11 -17 0 -13 3 -14 8 -6 12 20 4 -124 -8 -147 -6
-12 -9 -28 -6 -35 3 -8 0 -29 -6 -46 -8 -24 -8 -33 2 -39 7 -5 14 -25 16 -47
l3 -38 -14 40 -14 40 5 -40 c3 -24 1 -35 -4 -27 -5 7 -9 -22 -11 -73 -1 -59 2
-85 10 -85 6 0 9 7 6 14 -4 11 -1 13 10 9 12 -5 14 -3 8 7 -5 8 -4 11 3 6 6
-4 8 -14 5 -23 -5 -12 -3 -14 7 -8 8 5 11 4 6 -3 -4 -6 -13 -9 -21 -5 -23 8
-18 -5 11 -32 15 -14 23 -25 18 -25 -5 0 -20 12 -33 25 -23 25 -41 32 -41 17
0 -5 -31 -20 -70 -33 -38 -13 -70 -27 -70 -31 0 -4 -15 -5 -32 -2 -23 4 -29 3
-19 -4 10 -7 10 -11 1 -17 -7 -4 -16 -2 -20 4 -5 10 -16 9 -45 -3 -20 -9 -41
-14 -45 -11 -5 3 -19 -5 -31 -17 -16 -17 -20 -18 -16 -6 4 12 2 15 -8 11 -8
-3 -12 -9 -9 -14 3 -6 -5 -7 -19 -4 -14 4 -28 2 -31 -4 -4 -5 -14 -8 -24 -5
-14 5 -15 4 -2 -5 19 -14 5 -14 -18 0 -9 5 -116 38 -237 72 l-220 63 -12 114
c-6 63 -13 142 -15 175 l-3 60 111 3 111 3 7 -47 c3 -26 6 -64 6 -86 0 -45 1
-45 137 -83 112 -30 168 -27 177 11 5 17 13 24 30 24 14 0 32 3 42 7 12 4 15
3 10 -5 -4 -7 -18 -12 -31 -12 -13 0 -27 -5 -31 -11 -5 -9 1 -10 22 -4 16 4
43 9 59 10 33 4 88 23 67 24 -10 1 -10 6 1 29 14 29 12 72 -4 72 -5 0 -9 4 -9
10 0 5 6 9 13 7 9 -1 13 20 14 78 1 53 -1 73 -7 60 l-9 -20 -1 20 -1 20 -9
-20 c-6 -13 -9 -15 -9 -5 -1 13 -49 16 -354 19 -193 2 -353 4 -353 5 -6 5 -60
662 -55 668 3 3 252 8 553 10 302 2 548 7 548 11 0 5 4 6 10 2 5 -3 8 -47 8
-98z"/>
</g>
</svg>
